<svg width="12" height="23" viewBox="0 0 12 23" fill="none" xmlns="http://www.w3.org/2000/svg">
<path d="M8.59766 15.5469C8.59766 14.8828 8.38672 14.3359 7.96484 13.9062C7.54297 13.4688 6.83984 13.0781 5.85547 12.7344C4.87109 12.3828 4.10547 12.0586 3.55859 11.7617C1.73828 10.7852 0.828125 9.33984 0.828125 7.42578C0.828125 6.12891 1.22266 5.0625 2.01172 4.22656C2.80078 3.39063 3.87109 2.89453 5.22266 2.73828V0.183594H7.09766V2.76172C8.45703 2.95703 9.50781 3.53516 10.25 4.49609C10.9922 5.44922 11.3633 6.69141 11.3633 8.22266H8.52734C8.52734 7.23828 8.30469 6.46484 7.85938 5.90234C7.42188 5.33203 6.82422 5.04688 6.06641 5.04688C5.31641 5.04688 4.73047 5.25 4.30859 5.65625C3.88672 6.0625 3.67578 6.64453 3.67578 7.40234C3.67578 8.08203 3.88281 8.62891 4.29688 9.04297C4.71875 9.44922 5.42969 9.83594 6.42969 10.2031C7.42969 10.5703 8.21484 10.9102 8.78516 11.2227C9.35547 11.5352 9.83594 11.8945 10.2266 12.3008C10.6172 12.6992 10.918 13.1602 11.1289 13.6836C11.3398 14.207 11.4453 14.8203 11.4453 15.5234C11.4453 16.8438 11.0391 17.9141 10.2266 18.7344C9.42188 19.5547 8.29688 20.0391 6.85156 20.1875V22.4727H4.98828V20.1992C3.44141 20.0273 2.25 19.4727 1.41406 18.5352C0.585938 17.5977 0.171875 16.3555 0.171875 14.8086H3.01953C3.01953 15.793 3.26562 16.5547 3.75781 17.0938C4.25781 17.6328 4.96094 17.9023 5.86719 17.9023C6.75781 17.9023 7.43359 17.6875 7.89453 17.2578C8.36328 16.8281 8.59766 16.2578 8.59766 15.5469Z" fill="white"/>
</svg>
