<svg width="38" height="28" viewBox="0 0 38 28" fill="none" xmlns="http://www.w3.org/2000/svg">
<path fill-rule="evenodd" clip-rule="evenodd" d="M25.8937 10.7822C26.9463 10.7822 27.3214 10.7883 27.663 10.8727C27.9877 10.953 28.2974 11.0853 28.5799 11.2645C28.877 11.453 29.1407 11.7198 29.8682 12.4804L33.8039 16.595C34.3832 17.2006 34.7801 17.6165 35.0625 17.964C35.3381 18.3031 35.4539 18.5178 35.5103 18.7009C35.6389 19.1187 35.6339 19.5661 35.4961 19.9809C35.4356 20.1628 35.3151 20.3748 35.032 20.7077C34.742 21.0488 34.3359 21.4559 33.7433 22.0485L32.5484 23.2433C31.9558 23.8359 31.5488 24.242 31.2077 24.532C30.8748 24.8151 30.6628 24.9356 30.4809 24.9961C30.0661 25.1339 29.6187 25.1389 29.2009 25.0103C29.0177 24.9539 28.8031 24.8381 28.464 24.5625C28.1165 24.2801 27.7006 23.8832 27.095 23.3039L22.9804 19.3683C22.2198 18.6407 21.953 18.377 21.7645 18.0799C21.5852 17.7974 21.4529 17.4878 21.3727 17.163C21.2883 16.8214 21.2821 16.4463 21.2821 15.3937V14.6822C21.2821 13.8272 21.2828 13.2402 21.32 12.785C21.3563 12.3404 21.423 12.1016 21.511 11.9288C21.7124 11.5336 22.0336 11.2124 22.4288 11.011C22.6016 10.923 22.8404 10.8564 23.285 10.82C23.7401 10.7829 24.3272 10.7822 25.1821 10.7822H25.8937ZM28.0948 9.12527C27.5141 8.98176 26.9064 8.98191 26.0034 8.98213L25.8937 8.98215H25.1821L25.1444 8.98215L25.1444 8.98215C24.3364 8.98214 23.6755 8.98213 23.1385 9.02601C22.5825 9.07143 22.0805 9.16832 21.6116 9.40723C20.8777 9.78113 20.2811 10.3778 19.9072 11.1116C19.6683 11.5805 19.5714 12.0826 19.526 12.6385C19.4821 13.1755 19.4821 13.8364 19.4821 14.6444L19.4821 14.6445L19.4821 14.6822V15.3937L19.4821 15.5034C19.4819 16.4064 19.4817 17.0142 19.6253 17.5948C19.7521 18.1082 19.9613 18.5976 20.2445 19.0441C20.5649 19.5492 21.0043 19.9692 21.657 20.5932L21.657 20.5933L21.7362 20.669L25.8508 24.6047L25.8777 24.6304C26.4498 25.1777 26.9181 25.6256 27.3288 25.9594C27.7542 26.3051 28.1762 26.5782 28.6714 26.7306C29.4472 26.9694 30.2782 26.9602 31.0486 26.7042C31.5402 26.5409 31.956 26.2584 32.3736 25.9033C32.7768 25.5606 33.235 25.1023 33.7949 24.5425L33.8212 24.5161L35.0161 23.3212L35.0424 23.2949C35.6023 22.7351 36.0605 22.2768 36.4033 21.8737C36.7584 21.456 37.0408 21.0402 37.2042 20.5486C37.4602 19.7782 37.4694 18.9472 37.2306 18.1714C37.0782 17.6763 36.8051 17.2542 36.4594 16.8288C36.1256 16.4181 35.6777 15.9498 35.1304 15.3777L35.1047 15.3508L31.169 11.2362L31.0932 11.157C30.4692 10.5043 30.0492 10.065 29.5441 9.74454C29.0976 9.46127 28.6082 9.25214 28.0948 9.12527ZM24.5807 15.2422C24.5807 14.6007 25.1007 14.0806 25.7422 14.0806C26.3837 14.0806 26.9038 14.6007 26.9038 15.2422C26.9038 15.8837 26.3837 16.4038 25.7422 16.4038C25.1007 16.4038 24.5807 15.8837 24.5807 15.2422ZM25.7422 12.2806C24.1066 12.2806 22.7807 13.6066 22.7807 15.2422C22.7807 16.8778 24.1066 18.2038 25.7422 18.2038C27.3779 18.2038 28.7038 16.8778 28.7038 15.2422C28.7038 13.6066 27.3779 12.2806 25.7422 12.2806Z" fill="white"/>
<ellipse cx="10" cy="7.5" rx="6" ry="6.5" stroke="white" stroke-width="2"/>
<path d="M19 23C19 23 16 27 10 27C4 27 1 23 1 23" stroke="white" stroke-width="2" stroke-linecap="round"/>
<path d="M1 22C1 22 4 18 10 18C16 18 19 22 19 22" stroke="white" stroke-width="2" stroke-linecap="round"/>
</svg>
