<svg width="43" height="28" viewBox="0 0 43 28" fill="none" xmlns="http://www.w3.org/2000/svg">
<path d="M30.065 4.63317C31.1826 3.68988 32.8174 3.68988 33.935 4.63317L35.1327 5.64403C35.291 5.77768 35.4869 5.85884 35.6934 5.8763L37.255 6.00837C38.7123 6.13161 39.8683 7.28764 39.9916 8.74489L40.1236 10.3065C40.1411 10.513 40.2222 10.7089 40.3559 10.8673L41.3668 12.0649C42.31 13.1825 42.31 14.8174 41.3668 15.9349L40.3559 17.1326C40.2222 17.2909 40.1411 17.4868 40.1236 17.6933L39.9916 19.255C39.8683 20.7122 38.7123 21.8682 37.255 21.9915L35.6934 22.1236C35.4869 22.141 35.291 22.2222 35.1327 22.3558L33.935 23.3667C32.8174 24.31 31.1826 24.31 30.065 23.3667L28.8673 22.3558C28.709 22.2222 28.5131 22.141 28.3066 22.1236L26.745 21.9915C25.2877 21.8682 24.1317 20.7122 24.0084 19.255L23.8764 17.6933C23.8589 17.4868 23.7778 17.2909 23.6441 17.1326L22.6332 15.9349C21.69 14.8174 21.69 13.1825 22.6332 12.0649L23.6441 10.8673C23.7778 10.7089 23.8589 10.513 23.8764 10.3065L24.0084 8.74489C24.1317 7.28764 25.2877 6.13161 26.745 6.00837L28.3066 5.8763C28.5131 5.85884 28.709 5.77768 28.8673 5.64403L30.065 4.63317Z" fill="white"/>
<path d="M28 13.5L31 16.5L36 11.5" stroke="#0395FF" stroke-width="1.8" stroke-linecap="round" stroke-linejoin="round"/>
<ellipse cx="10" cy="7.5" rx="6" ry="6.5" stroke="white" stroke-width="2"/>
<path d="M19 23C19 23 16 27 10 27C4 27 1 23 1 23" stroke="white" stroke-width="2" stroke-linecap="round"/>
<path d="M1 22C1 22 4 18 10 18C16 18 19 22 19 22" stroke="white" stroke-width="2" stroke-linecap="round"/>
</svg>
