<svg width="48" height="42" viewBox="0 0 48 42" fill="none" xmlns="http://www.w3.org/2000/svg">
<circle cx="36" cy="21" r="9" stroke="white" stroke-width="1.8"/>
<path d="M34.459 18.9411C34.459 18.347 34.916 17.9749 35.5362 17.9031V19.9988C35.4709 19.9857 35.4122 19.9661 35.3534 19.9465C34.7593 19.7507 34.459 19.4112 34.459 18.9411ZM37.7233 23.015C37.7233 23.6548 37.2337 24.0792 36.5416 24.1379V21.8855C36.5873 21.8986 36.633 21.9116 36.6722 21.9182C37.4034 22.1206 37.7233 22.4796 37.7233 23.015ZM36.5547 26.3772L36.5482 25.5481C38.337 25.3783 39.473 24.3925 39.473 22.8387C39.473 21.2588 38.4088 20.5929 37.0966 20.3121L36.5416 20.1946V17.9161C37.2337 18.0271 37.6189 18.5494 37.6384 19.0717H39.3098C39.2837 17.7137 38.2195 16.6822 36.5677 16.5059V15.6572H35.5101V16.4994C33.9302 16.643 32.6897 17.5114 32.6897 19.0782C32.6897 20.5602 33.7604 21.3175 34.9748 21.5852L35.5362 21.7093V24.1379C34.7006 24.0269 34.2631 23.5242 34.2305 22.9236H32.52C32.5331 24.1314 33.3426 25.4045 35.5036 25.5611L35.4971 26.3772H36.5547Z" fill="white"/>
<path d="M9.25 9.20718H8.5C7.11929 9.20718 6 10.3265 6 11.7072V27.7072C6 29.0879 7.11929 30.2072 8.5 30.2072H15.5C16.8807 30.2072 18 29.0879 18 27.7072V11.7072C18 10.3265 16.8807 9.20718 15.5 9.20718H14.75M9.25 9.20718L9.75 10.4572H14.25L14.75 9.20718M9.25 9.20718H14.75" stroke="white" stroke-width="2" stroke-linejoin="round"/>
<path d="M24.555 1.0757L20.4501 4.63323C20.105 4.93229 20.105 5.46771 20.4501 5.76677L24.555 9.32429C25.0406 9.74522 25.7962 9.40022 25.7962 8.75753V7.55C25.7962 7.13579 26.1344 6.79778 26.5483 6.81436C28.8505 6.90659 29.8647 7.43449 30.5193 8.1505C31.0057 8.68244 31.7254 8.46875 31.5619 7.76681C31.0631 5.62679 29.6762 3.86765 26.5474 3.62785C26.1344 3.5962 25.7962 3.26421 25.7962 2.85V1.64247C25.7962 0.999778 25.0406 0.654785 24.555 1.0757Z" fill="white"/>
<path d="M26.0373 40.3243L30.1422 36.7668C30.4873 36.4677 30.4873 35.9323 30.1422 35.6332L26.0373 32.0757C25.5517 31.6548 24.7962 31.9998 24.7962 32.6425L24.7962 33.85C24.7962 34.2642 24.4579 34.6022 24.044 34.5856C21.7419 34.4934 20.7276 33.9655 20.073 33.2495C19.5866 32.7176 18.8669 32.9312 19.0304 33.6332C19.5292 35.7732 20.9161 37.5324 24.0449 37.7722C24.4579 37.8038 24.7962 38.1358 24.7962 38.55L24.7962 39.7575C24.7962 40.4002 25.5517 40.7452 26.0373 40.3243Z" fill="white"/>
</svg>
